<svg width="500" height="500" viewBox="0 0 500 500" fill="none" xmlns="http://www.w3.org/2000/svg">
<circle cx="250" cy="250" r="250" fill="white"/>
<path fill-rule="evenodd" clip-rule="evenodd" d="M383.578 461.36C344.937 485.832 299.123 500 250 500C111.929 500 0 388.071 0 250C0 111.929 111.929 0 250 0C388.071 0 500 111.929 500 250C500 299.123 485.832 344.937 461.36 383.578L387.599 309.817C395.576 291.491 400 271.262 400 250C400 167.157 332.843 100 250 100C167.157 100 100 167.157 100 250C100 332.843 167.157 400 250 400C271.262 400 291.491 395.576 309.817 387.599L383.578 461.36Z" fill="#FF005C"/>
</svg>
