<svg width="500" height="500" viewBox="0 0 500 500" fill="none" xmlns="http://www.w3.org/2000/svg">
<path transform="rotate(-0, 250, 250)" fill-rule="evenodd" clip-rule="evenodd" d="M466.323 375.399C487.737 338.538 500 295.701 500 250C500 111.929 388.071 0 250 0C111.929 0 0 111.929 0 250C0 388.071 111.929 500 250 500C295.701 500 338.538 487.737 375.399 466.323C359.648 471.941 342.681 475 325 475C242.157 475 175 407.843 175 325C175 242.157 242.157 175 325 175C407.843 175 475 242.157 475 325C475 342.681 471.941 359.648 466.323 375.399Z" fill="#FF005C"/>
</svg>
